<svg xmlns="http://www.w3.org/2000/svg" width="730" height="730" viewBox="0 0 730 730">
  <!-- Background -->
  <rect width="730" height="730" rx="40" fill="#0E7490" />
  
  <!-- Small Building (Before) -->
  <rect x="180" y="300" width="170" height="250" rx="5" fill="#0891B2" stroke="#000000" stroke-width="3" />
  <rect x="180" y="300" width="170" height="50" rx="5" fill="#06B6D4" stroke="#000000" stroke-width="3" />
  <rect x="180" y="350" width="170" height="50" rx="5" fill="#06B6D4" stroke="#000000" stroke-width="3" />
  <rect x="180" y="400" width="170" height="50" rx="5" fill="#06B6D4" stroke="#000000" stroke-width="3" />
  <rect x="180" y="450" width="170" height="50" rx="5" fill="#06B6D4" stroke="#000000" stroke-width="3" />
  <rect x="180" y="500" width="170" height="50" rx="5" fill="#06B6D4" stroke="#000000" stroke-width="3" />
  
  <!-- Small Building Windows -->
  <rect x="195" y="315" width="30" height="25" rx="2" fill="#CFFAFE" stroke="#000000" stroke-width="1" />
  <rect x="245" y="315" width="30" height="25" rx="2" fill="#CFFAFE" stroke="#000000" stroke-width="1" />
  <rect x="295" y="315" width="30" height="25" rx="2" fill="#CFFAFE" stroke="#000000" stroke-width="1" />
  
  <rect x="195" y="365" width="30" height="25" rx="2" fill="#CFFAFE" stroke="#000000" stroke-width="1" />
  <rect x="245" y="365" width="30" height="25" rx="2" fill="#CFFAFE" stroke="#000000" stroke-width="1" />
  <rect x="295" y="365" width="30" height="25" rx="2" fill="#CFFAFE" stroke="#000000" stroke-width="1" />
  
  <rect x="195" y="415" width="30" height="25" rx="2" fill="#CFFAFE" stroke="#000000" stroke-width="1" />
  <rect x="245" y="415" width="30" height="25" rx="2" fill="#CFFAFE" stroke="#000000" stroke-width="1" />
  <rect x="295" y="415" width="30" height="25" rx="2" fill="#CFFAFE" stroke="#000000" stroke-width="1" />
  
  <rect x="195" y="465" width="30" height="25" rx="2" fill="#CFFAFE" stroke="#000000" stroke-width="1" />
  <rect x="245" y="465" width="30" height="25" rx="2" fill="#CFFAFE" stroke="#000000" stroke-width="1" />
  <rect x="295" y="465" width="30" height="25" rx="2" fill="#CFFAFE" stroke="#000000" stroke-width="1" />
  
  <!-- Small Building Entrance -->
  <rect x="245" y="515" width="40" height="35" rx="2" fill="#FFFFFF" stroke="#000000" stroke-width="2" />
  <line x1="265" y1="515" x2="265" y2="550" stroke="#000000" stroke-width="2" />
  
  <!-- Large Building (After) -->
  <rect x="380" y="200" width="230" height="350" rx="5" fill="#0891B2" stroke="#000000" stroke-width="3" />
  <rect x="380" y="200" width="230" height="50" rx="5" fill="#06B6D4" stroke="#000000" stroke-width="3" />
  <rect x="380" y="250" width="230" height="50" rx="5" fill="#06B6D4" stroke="#000000" stroke-width="3" />
  <rect x="380" y="300" width="230" height="50" rx="5" fill="#06B6D4" stroke="#000000" stroke-width="3" />
  <rect x="380" y="350" width="230" height="50" rx="5" fill="#06B6D4" stroke="#000000" stroke-width="3" />
  <rect x="380" y="400" width="230" height="50" rx="5" fill="#06B6D4" stroke="#000000" stroke-width="3" />
  <rect x="380" y="450" width="230" height="50" rx="5" fill="#06B6D4" stroke="#000000" stroke-width="3" />
  <rect x="380" y="500" width="230" height="50" rx="5" fill="#06B6D4" stroke="#000000" stroke-width="3" />
  
  <!-- Large Building Windows -->
  <rect x="400" y="215" width="40" height="30" rx="2" fill="#CFFAFE" stroke="#000000" stroke-width="1" />
  <rect x="460" y="215" width="40" height="30" rx="2" fill="#CFFAFE" stroke="#000000" stroke-width="1" />
  <rect x="520" y="215" width="40" height="30" rx="2" fill="#CFFAFE" stroke="#000000" stroke-width="1" />
  
  <rect x="400" y="265" width="40" height="30" rx="2" fill="#CFFAFE" stroke="#000000" stroke-width="1" />
  <rect x="460" y="265" width="40" height="30" rx="2" fill="#CFFAFE" stroke="#000000" stroke-width="1" />
  <rect x="520" y="265" width="40" height="30" rx="2" fill="#CFFAFE" stroke="#000000" stroke-width="1" />
  
  <rect x="400" y="315" width="40" height="30" rx="2" fill="#CFFAFE" stroke="#000000" stroke-width="1" />
  <rect x="460" y="315" width="40" height="30" rx="2" fill="#CFFAFE" stroke="#000000" stroke-width="1" />
  <rect x="520" y="315" width="40" height="30" rx="2" fill="#CFFAFE" stroke="#000000" stroke-width="1" />
  
  <rect x="400" y="365" width="40" height="30" rx="2" fill="#CFFAFE" stroke="#000000" stroke-width="1" />
  <rect x="460" y="365" width="40" height="30" rx="2" fill="#CFFAFE" stroke="#000000" stroke-width="1" />
  <rect x="520" y="365" width="40" height="30" rx="2" fill="#CFFAFE" stroke="#000000" stroke-width="1" />
  
  <rect x="400" y="415" width="40" height="30" rx="2" fill="#CFFAFE" stroke="#000000" stroke-width="1" />
  <rect x="460" y="415" width="40" height="30" rx="2" fill="#CFFAFE" stroke="#000000" stroke-width="1" />
  <rect x="520" y="415" width="40" height="30" rx="2" fill="#CFFAFE" stroke="#000000" stroke-width="1" />
  
  <rect x="400" y="465" width="40" height="30" rx="2" fill="#CFFAFE" stroke="#000000" stroke-width="1" />
  <rect x="460" y="465" width="40" height="30" rx="2" fill="#CFFAFE" stroke="#000000" stroke-width="1" />
  <rect x="520" y="465" width="40" height="30" rx="2" fill="#CFFAFE" stroke="#000000" stroke-width="1" />
  
  <!-- Large Building Entrance -->
  <rect x="460" y="515" width="70" height="35" rx="2" fill="#FFFFFF" stroke="#000000" stroke-width="2" />
  <line x1="495" y1="515" x2="495" y2="550" stroke="#000000" stroke-width="2" />
  
  <!-- Upgrade Arrow -->
  <path d="M360,400 L375,400 L375,385 L395,405 L375,425 L375,410 L360,410 Z" fill="#FFFFFF" stroke="#000000" stroke-width="2" />
  
  <!-- Building Signs -->
  <rect x="220" y="270" width="90" height="30" rx="5" fill="#F59E0B" stroke="#000000" stroke-width="2" />
  <text x="265" y="290" font-family="Arial, sans-serif" font-size="16" font-weight="bold" text-anchor="middle" fill="#FFFFFF">LVL 1</text>
  
  <rect x="450" y="170" width="90" height="30" rx="5" fill="#F59E0B" stroke="#000000" stroke-width="2" />
  <text x="495" y="190" font-family="Arial, sans-serif" font-size="16" font-weight="bold" text-anchor="middle" fill="#FFFFFF">LVL 2</text>
  
  <!-- Dollar Sign and Upgrade Cost -->
  <circle cx="365" cy="300" r="40" fill="#FCD34D" stroke="#000000" stroke-width="3" />
  <text x="365" y="315" font-family="Arial, sans-serif" font-size="40" font-weight="bold" text-anchor="middle" fill="#000000">$</text>
  
  <rect x="325" y="350" width="80" height="30" rx="5" fill="#FFFFFF" stroke="#000000" stroke-width="2" />
  <text x="365" y="370" font-family="Arial, sans-serif" font-size="14" font-weight="bold" text-anchor="middle" fill="#000000">UPGRADE</text>
  
  <!-- Text -->
  <text x="365" y="620" font-family="Arial, sans-serif" font-size="48" text-anchor="middle" fill="#FFFFFF">COMPANY UPGRADE</text>
</svg>