<svg xmlns="http://www.w3.org/2000/svg" width="730" height="730" viewBox="0 0 730 730">
  <!-- Background -->
  <rect width="730" height="730" rx="40" fill="#0E7490" />
  
  <!-- Office Building -->
  <rect x="250" y="180" width="230" height="380" rx="5" fill="#0891B2" stroke="#000000" stroke-width="3" />
  <rect x="250" y="180" width="230" height="60" rx="5" fill="#06B6D4" stroke="#000000" stroke-width="3" />
  <rect x="250" y="240" width="230" height="60" rx="5" fill="#06B6D4" stroke="#000000" stroke-width="3" />
  <rect x="250" y="300" width="230" height="60" rx="5" fill="#06B6D4" stroke="#000000" stroke-width="3" />
  <rect x="250" y="360" width="230" height="60" rx="5" fill="#06B6D4" stroke="#000000" stroke-width="3" />
  <rect x="250" y="420" width="230" height="60" rx="5" fill="#06B6D4" stroke="#000000" stroke-width="3" />
  <rect x="250" y="480" width="230" height="80" rx="5" fill="#06B6D4" stroke="#000000" stroke-width="3" />
  
  <!-- Top Logo/Sign -->
  <rect x="320" y="140" width="90" height="40" rx="5" fill="#F59E0B" stroke="#000000" stroke-width="3" />
  <text x="365" y="167" font-family="Arial, sans-serif" font-size="22" font-weight="bold" text-anchor="middle" fill="#FFFFFF">CO.</text>
  
  <!-- Windows -->
  <!-- Floor 1 -->
  <rect x="270" y="200" width="40" height="30" rx="2" fill="#CFFAFE" stroke="#000000" stroke-width="1" />
  <rect x="330" y="200" width="40" height="30" rx="2" fill="#CFFAFE" stroke="#000000" stroke-width="1" />
  <rect x="390" y="200" width="40" height="30" rx="2" fill="#CFFAFE" stroke="#000000" stroke-width="1" />
  
  <!-- Floor 2 -->
  <rect x="270" y="260" width="40" height="30" rx="2" fill="#CFFAFE" stroke="#000000" stroke-width="1" />
  <rect x="330" y="260" width="40" height="30" rx="2" fill="#CFFAFE" stroke="#000000" stroke-width="1" />
  <rect x="390" y="260" width="40" height="30" rx="2" fill="#CFFAFE" stroke="#000000" stroke-width="1" />
  
  <!-- Floor 3 -->
  <rect x="270" y="320" width="40" height="30" rx="2" fill="#CFFAFE" stroke="#000000" stroke-width="1" />
  <rect x="330" y="320" width="40" height="30" rx="2" fill="#CFFAFE" stroke="#000000" stroke-width="1" />
  <rect x="390" y="320" width="40" height="30" rx="2" fill="#CFFAFE" stroke="#000000" stroke-width="1" />
  
  <!-- Floor 4 -->
  <rect x="270" y="380" width="40" height="30" rx="2" fill="#CFFAFE" stroke="#000000" stroke-width="1" />
  <rect x="330" y="380" width="40" height="30" rx="2" fill="#CFFAFE" stroke="#000000" stroke-width="1" />
  <rect x="390" y="380" width="40" height="30" rx="2" fill="#CFFAFE" stroke="#000000" stroke-width="1" />
  
  <!-- Floor 5 -->
  <rect x="270" y="440" width="40" height="30" rx="2" fill="#CFFAFE" stroke="#000000" stroke-width="1" />
  <rect x="330" y="440" width="40" height="30" rx="2" fill="#CFFAFE" stroke="#000000" stroke-width="1" />
  <rect x="390" y="440" width="40" height="30" rx="2" fill="#CFFAFE" stroke="#000000" stroke-width="1" />
  
  <!-- Entrance -->
  <rect x="330" y="500" width="70" height="40" rx="2" fill="#FFFFFF" stroke="#000000" stroke-width="2" />
  <line x1="365" y1="500" x2="365" y2="540" stroke="#000000" stroke-width="2" />
  
  <!-- Money Stacks Coming Out -->
  <!-- Stack 1 -->
  <rect x="510" y="240" width="60" height="20" rx="2" fill="#34D399" stroke="#000000" stroke-width="1" />
  <circle cx="520" cy="250" r="5" fill="#FFFFFF" />
  <text x="520" y="253" font-family="Arial, sans-serif" font-size="8" font-weight="bold" text-anchor="middle" fill="#000000">$</text>
  <rect x="510" y="250" width="60" height="20" rx="2" fill="#34D399" stroke="#000000" stroke-width="1" />
  <circle cx="520" cy="260" r="5" fill="#FFFFFF" />
  <text x="520" y="263" font-family="Arial, sans-serif" font-size="8" font-weight="bold" text-anchor="middle" fill="#000000">$</text>
  <rect x="510" y="260" width="60" height="20" rx="2" fill="#34D399" stroke="#000000" stroke-width="1" />
  <circle cx="520" cy="270" r="5" fill="#FFFFFF" />
  <text x="520" y="273" font-family="Arial, sans-serif" font-size="8" font-weight="bold" text-anchor="middle" fill="#000000">$</text>
  
  <!-- Stack 2 -->
  <rect x="530" y="320" width="60" height="20" rx="2" fill="#34D399" stroke="#000000" stroke-width="1" />
  <circle cx="540" cy="330" r="5" fill="#FFFFFF" />
  <text x="540" y="333" font-family="Arial, sans-serif" font-size="8" font-weight="bold" text-anchor="middle" fill="#000000">$</text>
  <rect x="530" y="330" width="60" height="20" rx="2" fill="#34D399" stroke="#000000" stroke-width="1" />
  <circle cx="540" cy="340" r="5" fill="#FFFFFF" />
  <text x="540" y="343" font-family="Arial, sans-serif" font-size="8" font-weight="bold" text-anchor="middle" fill="#000000">$</text>
  <rect x="530" y="340" width="60" height="20" rx="2" fill="#34D399" stroke="#000000" stroke-width="1" />
  <circle cx="540" cy="350" r="5" fill="#FFFFFF" />
  <text x="540" y="353" font-family="Arial, sans-serif" font-size="8" font-weight="bold" text-anchor="middle" fill="#000000">$</text>
  
  <!-- Stack 3 -->
  <rect x="500" y="400" width="60" height="20" rx="2" fill="#34D399" stroke="#000000" stroke-width="1" />
  <circle cx="510" cy="410" r="5" fill="#FFFFFF" />
  <text x="510" y="413" font-family="Arial, sans-serif" font-size="8" font-weight="bold" text-anchor="middle" fill="#000000">$</text>
  <rect x="500" y="410" width="60" height="20" rx="2" fill="#34D399" stroke="#000000" stroke-width="1" />
  <circle cx="510" cy="420" r="5" fill="#FFFFFF" />
  <text x="510" y="423" font-family="Arial, sans-serif" font-size="8" font-weight="bold" text-anchor="middle" fill="#000000">$</text>
  <rect x="500" y="420" width="60" height="20" rx="2" fill="#34D399" stroke="#000000" stroke-width="1" />
  <circle cx="510" cy="430" r="5" fill="#FFFFFF" />
  <text x="510" y="433" font-family="Arial, sans-serif" font-size="8" font-weight="bold" text-anchor="middle" fill="#000000">$</text>
  
  <!-- Money Arrows -->
  <path d="M480,260 C490,260 500,260 510,260" stroke="#FFFFFF" stroke-width="3" fill="none" marker-end="url(#arrowhead)" />
  <path d="M480,340 C490,340 520,340 530,340" stroke="#FFFFFF" stroke-width="3" fill="none" marker-end="url(#arrowhead)" />
  <path d="M480,420 C490,420 490,420 500,420" stroke="#FFFFFF" stroke-width="3" fill="none" marker-end="url(#arrowhead)" />
  <defs>
    <marker id="arrowhead" markerWidth="10" markerHeight="7" refX="10" refY="3.5" orient="auto">
      <polygon points="0 0, 10 3.5, 0 7" fill="#FFFFFF" />
    </marker>
  </defs>
  
  <!-- Person collecting money -->
  <circle cx="620" cy="340" r="40" fill="#F59E0B" stroke="#000000" stroke-width="2" />
  <path d="M590,350 C590,390 650,390 650,350" stroke="#000000" stroke-width="2" fill="#F59E0B" />
  <circle cx="610" cy="330" r="5" fill="#000000" />
  <circle cx="630" cy="330" r="5" fill="#000000" />
  <path d="M610,350 C613,356 627,356 630,350" stroke="#000000" stroke-width="2" fill="none" />
  
  <!-- Money Bag -->
  <path d="M570,400 C570,450 670,450 670,400 L650,380 L590,380 Z" fill="#FCD34D" stroke="#000000" stroke-width="2" />
  <text x="620" y="425" font-family="Arial, sans-serif" font-size="30" font-weight="bold" text-anchor="middle" fill="#000000">$</text>
  
  <!-- Text -->
  <text x="365" y="600" font-family="Arial, sans-serif" font-size="48" text-anchor="middle" fill="#FFFFFF">COLLECT EARNINGS</text>
</svg>