<svg xmlns="http://www.w3.org/2000/svg" width="500" height="250" viewBox="0 0 500 250">
  <!-- Background -->
  <rect width="500" height="250" rx="20" fill="#0E7490" />
  
  <!-- Skyscraper/Office Building -->
  <rect x="180" y="40" width="140" height="180" rx="5" fill="#0891B2" stroke="#000000" stroke-width="2" />
  <rect x="180" y="40" width="140" height="30" rx="5" fill="#06B6D4" stroke="#000000" stroke-width="2" />
  <rect x="180" y="70" width="140" height="30" rx="5" fill="#06B6D4" stroke="#000000" stroke-width="2" />
  <rect x="180" y="100" width="140" height="30" rx="5" fill="#06B6D4" stroke="#000000" stroke-width="2" />
  <rect x="180" y="130" width="140" height="30" rx="5" fill="#06B6D4" stroke="#000000" stroke-width="2" />
  <rect x="180" y="160" width="140" height="30" rx="5" fill="#06B6D4" stroke="#000000" stroke-width="2" />
  <rect x="180" y="190" width="140" height="30" rx="5" fill="#06B6D4" stroke="#000000" stroke-width="2" />
  
  <!-- Top Logo/Sign -->
  <rect x="215" y="20" width="70" height="20" rx="5" fill="#F59E0B" stroke="#000000" stroke-width="2" />
  <text x="250" y="35" font-family="Arial, sans-serif" font-size="14" font-weight="bold" text-anchor="middle" fill="#FFFFFF">CO.</text>
  
  <!-- Windows -->
  <!-- Floor 1 -->
  <rect x="190" y="45" width="25" height="20" rx="2" fill="#CFFAFE" stroke="#000000" stroke-width="1" />
  <rect x="225" y="45" width="25" height="20" rx="2" fill="#CFFAFE" stroke="#000000" stroke-width="1" />
  <rect x="260" y="45" width="25" height="20" rx="2" fill="#CFFAFE" stroke="#000000" stroke-width="1" />
  
  <!-- Floor 2 -->
  <rect x="190" y="75" width="25" height="20" rx="2" fill="#CFFAFE" stroke="#000000" stroke-width="1" />
  <rect x="225" y="75" width="25" height="20" rx="2" fill="#CFFAFE" stroke="#000000" stroke-width="1" />
  <rect x="260" y="75" width="25" height="20" rx="2" fill="#CFFAFE" stroke="#000000" stroke-width="1" />
  
  <!-- Floor 3 -->
  <rect x="190" y="105" width="25" height="20" rx="2" fill="#CFFAFE" stroke="#000000" stroke-width="1" />
  <rect x="225" y="105" width="25" height="20" rx="2" fill="#CFFAFE" stroke="#000000" stroke-width="1" />
  <rect x="260" y="105" width="25" height="20" rx="2" fill="#CFFAFE" stroke="#000000" stroke-width="1" />
  
  <!-- Floor 4 -->
  <rect x="190" y="135" width="25" height="20" rx="2" fill="#CFFAFE" stroke="#000000" stroke-width="1" />
  <rect x="225" y="135" width="25" height="20" rx="2" fill="#CFFAFE" stroke="#000000" stroke-width="1" />
  <rect x="260" y="135" width="25" height="20" rx="2" fill="#CFFAFE" stroke="#000000" stroke-width="1" />
  
  <!-- Floor 5 -->
  <rect x="190" y="165" width="25" height="20" rx="2" fill="#CFFAFE" stroke="#000000" stroke-width="1" />
  <rect x="225" y="165" width="25" height="20" rx="2" fill="#CFFAFE" stroke="#000000" stroke-width="1" />
  <rect x="260" y="165" width="25" height="20" rx="2" fill="#CFFAFE" stroke="#000000" stroke-width="1" />
  
  <!-- Entrance -->
  <rect x="225" y="195" width="50" height="25" rx="2" fill="#FFFFFF" stroke="#000000" stroke-width="2" />
  <line x1="250" y1="195" x2="250" y2="220" stroke="#000000" stroke-width="2" />
  
  <!-- Business Icons -->
  <!-- Chart/Graph -->
  <path d="M80,120 L80,180 L140,180 Z" fill="#10B981" fill-opacity="0.8" stroke="#000000" stroke-width="2" />
  <path d="M85,175 L85,150 L95,160 L105,130 L115,145 L125,125 L125,175 Z" fill="#34D399" stroke="#000000" stroke-width="2" />
  <circle cx="85" cy="150" r="4" fill="#000000" />
  <circle cx="95" cy="160" r="4" fill="#000000" />
  <circle cx="105" cy="130" r="4" fill="#000000" />
  <circle cx="115" cy="145" r="4" fill="#000000" />
  <circle cx="125" cy="125" r="4" fill="#000000" />
  
  <!-- Document/Contract -->
  <rect x="370" y="120" width="60" height="80" rx="5" fill="#FFFFFF" stroke="#000000" stroke-width="2" />
  <line x1="380" y1="140" x2="420" y2="140" stroke="#000000" stroke-width="2" />
  <line x1="380" y1="160" x2="420" y2="160" stroke="#000000" stroke-width="2" />
  <line x1="380" y1="180" x2="420" y2="180" stroke="#000000" stroke-width="2" />
  <circle cx="400" cy="195" r="8" fill="#EF4444" stroke="#000000" stroke-width="1" />
  
  <!-- Briefcase -->
  <rect x="370" y="50" width="60" height="40" rx="5" fill="#F59E0B" stroke="#000000" stroke-width="2" />
  <rect x="385" y="40" width="30" height="10" rx="5" fill="#F59E0B" stroke="#000000" stroke-width="2" />
  <line x1="400" y1="50" x2="400" y2="90" stroke="#000000" stroke-width="1" />
  
  <!-- Dollar Sign -->
  <circle cx="80" cy="70" r="30" fill="#FCD34D" stroke="#000000" stroke-width="2" />
  <text x="80" y="80" font-family="Arial, sans-serif" font-size="30" font-weight="bold" text-anchor="middle" fill="#000000">$</text>
  
  <!-- Text -->
  <text x="250" y="230" font-family="Arial, sans-serif" font-size="24" text-anchor="middle" fill="#FFFFFF">COMPANY</text>
</svg>