<svg xmlns="http://www.w3.org/2000/svg" width="730" height="730" viewBox="0 0 730 730">
  <!-- Background -->
  <rect width="730" height="730" rx="40" fill="#0E7490" />
  
  <!-- Small Office Building -->
  <rect x="250" y="200" width="230" height="300" rx="5" fill="#0891B2" stroke="#000000" stroke-width="3" />
  <rect x="250" y="200" width="230" height="60" rx="5" fill="#06B6D4" stroke="#000000" stroke-width="3" />
  <rect x="250" y="260" width="230" height="60" rx="5" fill="#06B6D4" stroke="#000000" stroke-width="3" />
  <rect x="250" y="320" width="230" height="60" rx="5" fill="#06B6D4" stroke="#000000" stroke-width="3" />
  <rect x="250" y="380" width="230" height="60" rx="5" fill="#06B6D4" stroke="#000000" stroke-width="3" />
  <rect x="250" y="440" width="230" height="60" rx="5" fill="#06B6D4" stroke="#000000" stroke-width="3" />
  
  <!-- Top Logo/Sign -->
  <rect x="320" y="160" width="90" height="40" rx="5" fill="#F59E0B" stroke="#000000" stroke-width="3" />
  <text x="365" y="187" font-family="Arial, sans-serif" font-size="22" font-weight="bold" text-anchor="middle" fill="#FFFFFF">CO.</text>
  
  <!-- Windows -->
  <!-- Floor 1 -->
  <rect x="270" y="220" width="40" height="30" rx="2" fill="#CFFAFE" stroke="#000000" stroke-width="1" />
  <rect x="330" y="220" width="40" height="30" rx="2" fill="#CFFAFE" stroke="#000000" stroke-width="1" />
  <rect x="390" y="220" width="40" height="30" rx="2" fill="#CFFAFE" stroke="#000000" stroke-width="1" />
  
  <!-- Floor 2 -->
  <rect x="270" y="280" width="40" height="30" rx="2" fill="#CFFAFE" stroke="#000000" stroke-width="1" />
  <rect x="330" y="280" width="40" height="30" rx="2" fill="#CFFAFE" stroke="#000000" stroke-width="1" />
  <rect x="390" y="280" width="40" height="30" rx="2" fill="#CFFAFE" stroke="#000000" stroke-width="1" />
  
  <!-- Floor 3 -->
  <rect x="270" y="340" width="40" height="30" rx="2" fill="#CFFAFE" stroke="#000000" stroke-width="1" />
  <rect x="330" y="340" width="40" height="30" rx="2" fill="#CFFAFE" stroke="#000000" stroke-width="1" />
  <rect x="390" y="340" width="40" height="30" rx="2" fill="#CFFAFE" stroke="#000000" stroke-width="1" />
  
  <!-- Floor 4 -->
  <rect x="270" y="400" width="40" height="30" rx="2" fill="#CFFAFE" stroke="#000000" stroke-width="1" />
  <rect x="330" y="400" width="40" height="30" rx="2" fill="#CFFAFE" stroke="#000000" stroke-width="1" />
  <rect x="390" y="400" width="40" height="30" rx="2" fill="#CFFAFE" stroke="#000000" stroke-width="1" />
  
  <!-- Entrance -->
  <rect x="330" y="460" width="70" height="40" rx="2" fill="#FFFFFF" stroke="#000000" stroke-width="2" />
  <line x1="365" y1="460" x2="365" y2="500" stroke="#000000" stroke-width="2" />
  
  <!-- Transaction Elements -->
  <!-- Dollar Bills -->
  <rect x="140" y="350" width="80" height="40" rx="3" fill="#34D399" stroke="#000000" stroke-width="2" />
  <circle cx="160" cy="370" r="15" fill="#FFFFFF" stroke="#000000" stroke-width="1" />
  <text x="160" y="375" font-family="Arial, sans-serif" font-size="16" font-weight="bold" text-anchor="middle" fill="#000000">$</text>
  
  <rect x="130" y="365" width="80" height="40" rx="3" fill="#34D399" stroke="#000000" stroke-width="2" />
  <circle cx="150" cy="385" r="15" fill="#FFFFFF" stroke="#000000" stroke-width="1" />
  <text x="150" y="390" font-family="Arial, sans-serif" font-size="16" font-weight="bold" text-anchor="middle" fill="#000000">$</text>
  
  <rect x="120" y="380" width="80" height="40" rx="3" fill="#34D399" stroke="#000000" stroke-width="2" />
  <circle cx="140" cy="400" r="15" fill="#FFFFFF" stroke="#000000" stroke-width="1" />
  <text x="140" y="405" font-family="Arial, sans-serif" font-size="16" font-weight="bold" text-anchor="middle" fill="#000000">$</text>
  
  <!-- Arrow from Money to Building -->
  <path d="M200,380 C230,380 230,380 250,380" stroke="#FFFFFF" stroke-width="4" fill="none" marker-end="url(#arrowhead)" />
  <defs>
    <marker id="arrowhead" markerWidth="10" markerHeight="7" refX="10" refY="3.5" orient="auto">
      <polygon points="0 0, 10 3.5, 0 7" fill="#FFFFFF" />
    </marker>
  </defs>
  
  <!-- Document/Contract -->
  <rect x="520" y="350" width="100" height="120" rx="5" fill="#FFFFFF" stroke="#000000" stroke-width="2" />
  <line x1="540" y1="380" x2="600" y2="380" stroke="#000000" stroke-width="2" />
  <line x1="540" y1="400" x2="600" y2="400" stroke="#000000" stroke-width="2" />
  <line x1="540" y1="420" x2="600" y2="420" stroke="#000000" stroke-width="2" />
  <line x1="540" y1="440" x2="580" y2="440" stroke="#000000" stroke-width="2" />
  <circle cx="570" cy="470" r="15" fill="#EF4444" stroke="#000000" stroke-width="1" />
  
  <!-- Person buying -->
  <circle cx="150" cy="280" r="30" fill="#F59E0B" stroke="#000000" stroke-width="2" />
  <path d="M130,290 C130,320 170,320 170,290" stroke="#000000" stroke-width="2" fill="#F59E0B" />
  <circle cx="140" cy="275" r="4" fill="#000000" />
  <circle cx="160" cy="275" r="4" fill="#000000" />
  <path d="M140,288 C143,294 157,294 160,288" stroke="#000000" stroke-width="2" fill="none" />
  
  <!-- For Sale Sign -->
  <rect x="550" y="200" width="80" height="70" rx="5" fill="#FFFFFF" stroke="#000000" stroke-width="2" />
  <path d="M550,230 L630,230" stroke="#000000" stroke-width="2" />
  <text x="590" y="222" font-family="Arial, sans-serif" font-size="18" font-weight="bold" text-anchor="middle" fill="#EF4444">FOR</text>
  <text x="590" y="260" font-family="Arial, sans-serif" font-size="24" font-weight="bold" text-anchor="middle" fill="#EF4444">SALE</text>
  <line x1="590" y1="200" x2="590" y2="150" stroke="#000000" stroke-width="2" />
  
  <!-- Text -->
  <text x="365" y="580" font-family="Arial, sans-serif" font-size="48" text-anchor="middle" fill="#FFFFFF">BUY COMPANY</text>
</svg>