<svg xmlns="http://www.w3.org/2000/svg" width="160" height="60" viewBox="0 0 160 60">
  <rect width="160" height="60" rx="10" fill="#0891B2" />
  <g fill="#FFFFFF">
    <!-- Building Skyscraper -->
    <rect x="25" y="10" width="25" height="40" />
    <rect x="28" y="15" width="5" height="5" fill="#0891B2" />
    <rect x="37" y="15" width="5" height="5" fill="#0891B2" />
    <rect x="28" y="25" width="5" height="5" fill="#0891B2" />
    <rect x="37" y="25" width="5" height="5" fill="#0891B2" />
    <rect x="28" y="35" width="5" height="5" fill="#0891B2" />
    <rect x="37" y="35" width="5" height="5" fill="#0891B2" />
    <rect x="30" y="45" width="15" height="5" rx="1" />
    
    <!-- Medium Building -->
    <rect x="55" y="20" width="20" height="30" />
    <rect x="58" y="25" width="4" height="4" fill="#0891B2" />
    <rect x="65" y="25" width="4" height="4" fill="#0891B2" />
    <rect x="58" y="35" width="4" height="4" fill="#0891B2" />
    <rect x="65" y="35" width="4" height="4" fill="#0891B2" />
    <rect x="58" y="45" width="14" height="5" rx="1" />
    
    <!-- Small Building -->
    <rect x="80" y="30" width="15" height="20" />
    <rect x="83" y="35" width="3" height="3" fill="#0891B2" />
    <rect x="89" y="35" width="3" height="3" fill="#0891B2" />
    <rect x="83" y="45" width="9" height="5" rx="1" />
    
    <!-- Charts -->
    <path d="M110,50 L110,25 L125,25 L125,50 Z" fill="none" stroke="#FFFFFF" stroke-width="2" />
    <path d="M110,40 L115,35 L120,42 L125,30" fill="none" stroke="#22D3EE" stroke-width="2" />
    <circle cx="115" cy="35" r="2" fill="#22D3EE" />
    <circle cx="120" cy="42" r="2" fill="#22D3EE" />
    
    <!-- Money/Profit -->
    <circle cx="140" cy="30" r="10" stroke="#FFFFFF" stroke-width="2" fill="none" />
    <text x="140" y="35" font-family="Arial" font-size="14" text-anchor="middle" fill="#FFFFFF">$</text>
    <path d="M130,45 L135,40 L140,45 L145,40 L150,45" fill="none" stroke="#FFFFFF" stroke-width="2" />
  </g>
</svg>