<svg xmlns="http://www.w3.org/2000/svg" width="730" height="730" viewBox="0 0 730 730">
  <!-- Background -->
  <rect width="730" height="730" rx="40" fill="#0E7490" />
  
  <!-- Skyscraper/Office Building -->
  <rect x="250" y="150" width="230" height="450" rx="5" fill="#0891B2" stroke="#000000" stroke-width="3" />
  <rect x="250" y="150" width="230" height="60" rx="5" fill="#06B6D4" stroke="#000000" stroke-width="3" />
  <rect x="250" y="210" width="230" height="60" rx="5" fill="#06B6D4" stroke="#000000" stroke-width="3" />
  <rect x="250" y="270" width="230" height="60" rx="5" fill="#06B6D4" stroke="#000000" stroke-width="3" />
  <rect x="250" y="330" width="230" height="60" rx="5" fill="#06B6D4" stroke="#000000" stroke-width="3" />
  <rect x="250" y="390" width="230" height="60" rx="5" fill="#06B6D4" stroke="#000000" stroke-width="3" />
  <rect x="250" y="450" width="230" height="60" rx="5" fill="#06B6D4" stroke="#000000" stroke-width="3" />
  <rect x="250" y="510" width="230" height="60" rx="5" fill="#06B6D4" stroke="#000000" stroke-width="3" />
  
  <!-- Top Logo/Sign -->
  <rect x="320" y="100" width="90" height="50" rx="5" fill="#F59E0B" stroke="#000000" stroke-width="3" />
  <text x="365" y="135" font-family="Arial, sans-serif" font-size="28" font-weight="bold" text-anchor="middle" fill="#FFFFFF">CO.</text>
  
  <!-- Windows -->
  <!-- Floor 1 -->
  <rect x="270" y="170" width="40" height="30" rx="2" fill="#CFFAFE" stroke="#000000" stroke-width="1" />
  <rect x="330" y="170" width="40" height="30" rx="2" fill="#CFFAFE" stroke="#000000" stroke-width="1" />
  <rect x="390" y="170" width="40" height="30" rx="2" fill="#CFFAFE" stroke="#000000" stroke-width="1" />
  
  <!-- Floor 2 -->
  <rect x="270" y="230" width="40" height="30" rx="2" fill="#CFFAFE" stroke="#000000" stroke-width="1" />
  <rect x="330" y="230" width="40" height="30" rx="2" fill="#CFFAFE" stroke="#000000" stroke-width="1" />
  <rect x="390" y="230" width="40" height="30" rx="2" fill="#CFFAFE" stroke="#000000" stroke-width="1" />
  
  <!-- Floor 3 -->
  <rect x="270" y="290" width="40" height="30" rx="2" fill="#CFFAFE" stroke="#000000" stroke-width="1" />
  <rect x="330" y="290" width="40" height="30" rx="2" fill="#CFFAFE" stroke="#000000" stroke-width="1" />
  <rect x="390" y="290" width="40" height="30" rx="2" fill="#CFFAFE" stroke="#000000" stroke-width="1" />
  
  <!-- Floor 4 -->
  <rect x="270" y="350" width="40" height="30" rx="2" fill="#CFFAFE" stroke="#000000" stroke-width="1" />
  <rect x="330" y="350" width="40" height="30" rx="2" fill="#CFFAFE" stroke="#000000" stroke-width="1" />
  <rect x="390" y="350" width="40" height="30" rx="2" fill="#CFFAFE" stroke="#000000" stroke-width="1" />
  
  <!-- Floor 5 -->
  <rect x="270" y="410" width="40" height="30" rx="2" fill="#CFFAFE" stroke="#000000" stroke-width="1" />
  <rect x="330" y="410" width="40" height="30" rx="2" fill="#CFFAFE" stroke="#000000" stroke-width="1" />
  <rect x="390" y="410" width="40" height="30" rx="2" fill="#CFFAFE" stroke="#000000" stroke-width="1" />
  
  <!-- Floor 6 -->
  <rect x="270" y="470" width="40" height="30" rx="2" fill="#CFFAFE" stroke="#000000" stroke-width="1" />
  <rect x="330" y="470" width="40" height="30" rx="2" fill="#CFFAFE" stroke="#000000" stroke-width="1" />
  <rect x="390" y="470" width="40" height="30" rx="2" fill="#CFFAFE" stroke="#000000" stroke-width="1" />
  
  <!-- Entrance -->
  <rect x="330" y="530" width="70" height="40" rx="2" fill="#FFFFFF" stroke="#000000" stroke-width="2" />
  <line x1="365" y1="530" x2="365" y2="570" stroke="#000000" stroke-width="2" />
  
  <!-- Business Icons -->
  <!-- Chart/Graph -->
  <path d="M150,350 L150,450 L250,450 Z" fill="#10B981" fill-opacity="0.8" stroke="#000000" stroke-width="2" />
  <path d="M160,440 L160,400 L180,420 L200,370 L220,390 L240,360 L240,440 Z" fill="#34D399" stroke="#000000" stroke-width="2" />
  <circle cx="160" cy="400" r="5" fill="#000000" />
  <circle cx="180" cy="420" r="5" fill="#000000" />
  <circle cx="200" cy="370" r="5" fill="#000000" />
  <circle cx="220" cy="390" r="5" fill="#000000" />
  <circle cx="240" cy="360" r="5" fill="#000000" />
  
  <!-- Document/Contract -->
  <rect x="500" y="350" width="80" height="100" rx="5" fill="#FFFFFF" stroke="#000000" stroke-width="2" />
  <line x1="520" y1="380" x2="560" y2="380" stroke="#000000" stroke-width="2" />
  <line x1="520" y1="400" x2="560" y2="400" stroke="#000000" stroke-width="2" />
  <line x1="520" y1="420" x2="560" y2="420" stroke="#000000" stroke-width="2" />
  <circle cx="540" cy="460" r="15" fill="#EF4444" stroke="#000000" stroke-width="1" />
  
  <!-- Briefcase -->
  <rect x="500" y="200" width="80" height="60" rx="5" fill="#F59E0B" stroke="#000000" stroke-width="2" />
  <rect x="520" y="180" width="40" height="20" rx="5" fill="#F59E0B" stroke="#000000" stroke-width="2" />
  <line x1="540" y1="200" x2="540" y2="260" stroke="#000000" stroke-width="1" />
  
  <!-- Dollar Sign -->
  <circle cx="150" cy="220" r="40" fill="#FCD34D" stroke="#000000" stroke-width="3" />
  <text x="150" y="235" font-family="Arial, sans-serif" font-size="40" font-weight="bold" text-anchor="middle" fill="#000000">$</text>
  
  <!-- Text -->
  <text x="365" y="650" font-family="Arial, sans-serif" font-size="48" text-anchor="middle" fill="#FFFFFF">COMPANY</text>
</svg>