<svg xmlns="http://www.w3.org/2000/svg" width="730" height="730" viewBox="0 0 730 730">
  <!-- Background -->
  <rect width="730" height="730" rx="40" fill="#0369A1" />
  
  <!-- Skyscraper Building -->
  <rect x="200" y="180" width="180" height="360" fill="#FFFFFF" />
  <rect x="210" y="190" width="160" height="350" fill="#E5E7EB" />
  
  <!-- Windows on the building -->
  <rect x="230" y="210" width="30" height="30" fill="#A5F3FC" />
  <rect x="270" y="210" width="30" height="30" fill="#A5F3FC" />
  <rect x="310" y="210" width="30" height="30" fill="#A5F3FC" />
  
  <rect x="230" y="250" width="30" height="30" fill="#A5F3FC" />
  <rect x="270" y="250" width="30" height="30" fill="#A5F3FC" />
  <rect x="310" y="250" width="30" height="30" fill="#A5F3FC" />
  
  <rect x="230" y="290" width="30" height="30" fill="#A5F3FC" />
  <rect x="270" y="290" width="30" height="30" fill="#A5F3FC" />
  <rect x="310" y="290" width="30" height="30" fill="#A5F3FC" />
  
  <rect x="230" y="330" width="30" height="30" fill="#A5F3FC" />
  <rect x="270" y="330" width="30" height="30" fill="#A5F3FC" />
  <rect x="310" y="330" width="30" height="30" fill="#A5F3FC" />
  
  <rect x="230" y="370" width="30" height="30" fill="#A5F3FC" />
  <rect x="270" y="370" width="30" height="30" fill="#A5F3FC" />
  <rect x="310" y="370" width="30" height="30" fill="#A5F3FC" />
  
  <rect x="230" y="410" width="30" height="30" fill="#A5F3FC" />
  <rect x="270" y="410" width="30" height="30" fill="#A5F3FC" />
  <rect x="310" y="410" width="30" height="30" fill="#A5F3FC" />
  
  <rect x="230" y="450" width="30" height="30" fill="#A5F3FC" />
  <rect x="270" y="450" width="30" height="30" fill="#A5F3FC" />
  <rect x="310" y="450" width="30" height="30" fill="#A5F3FC" />
  
  <!-- Second Building -->
  <rect x="400" y="280" width="130" height="260" fill="#FFFFFF" />
  <rect x="410" y="290" width="110" height="250" fill="#E5E7EB" />
  
  <!-- Windows on second building -->
  <rect x="420" y="310" width="25" height="25" fill="#A5F3FC" />
  <rect x="455" y="310" width="25" height="25" fill="#A5F3FC" />
  <rect x="485" y="310" width="25" height="25" fill="#A5F3FC" />
  
  <rect x="420" y="345" width="25" height="25" fill="#A5F3FC" />
  <rect x="455" y="345" width="25" height="25" fill="#A5F3FC" />
  <rect x="485" y="345" width="25" height="25" fill="#A5F3FC" />
  
  <rect x="420" y="380" width="25" height="25" fill="#A5F3FC" />
  <rect x="455" y="380" width="25" height="25" fill="#A5F3FC" />
  <rect x="485" y="380" width="25" height="25" fill="#A5F3FC" />
  
  <rect x="420" y="415" width="25" height="25" fill="#A5F3FC" />
  <rect x="455" y="415" width="25" height="25" fill="#A5F3FC" />
  <rect x="485" y="415" width="25" height="25" fill="#A5F3FC" />
  
  <rect x="420" y="450" width="25" height="25" fill="#A5F3FC" />
  <rect x="455" y="450" width="25" height="25" fill="#A5F3FC" />
  <rect x="485" y="450" width="25" height="25" fill="#A5F3FC" />
  
  <!-- Business Chart -->
  <line x1="180" y1="260" x2="180" y2="420" stroke="#FFFFFF" stroke-width="4" />
  <line x1="180" y1="420" x2="340" y2="420" stroke="#FFFFFF" stroke-width="4" />
  
  <polyline points="180,380 200,360 220,370 240,330 260,340 280,300 300,280 320,260 340,220" stroke="#22C55E" stroke-width="4" fill="none" />
  
  <!-- Coin/Money -->
  <circle cx="500" cy="220" r="60" fill="#FFD700" stroke="#B8860B" stroke-width="4" />
  <circle cx="500" cy="220" r="50" fill="#FFC000" />
  <text x="500" y="235" font-family="Arial, sans-serif" font-size="32" text-anchor="middle" fill="#B8860B">$</text>
  
  <!-- Text -->
  <text x="365" y="600" font-family="Arial, sans-serif" font-size="48" text-anchor="middle" fill="#FFFFFF">COMPANY COMMANDS</text>
</svg>