<svg xmlns="http://www.w3.org/2000/svg" width="48" height="48" viewBox="0 0 48 48">
  <rect width="48" height="48" rx="8" fill="#DC2626" />
  <g fill="#FFFFFF">
    <!-- Dice -->
    <rect x="8" y="8" width="15" height="15" rx="2" />
    <circle cx="13" cy="13" r="2" />
    <circle cx="18" cy="13" r="2" />
    <circle cx="13" cy="18" r="2" />
    <circle cx="18" cy="18" r="2" />
    
    <!-- Card -->
    <rect x="25" y="8" width="15" height="20" rx="2" />
    <rect x="28" y="11" width="9" height="4" rx="1" fill="#DC2626" />
    <rect x="28" y="17" width="9" height="2" fill="#DC2626" />
    <rect x="28" y="21" width="9" height="2" fill="#DC2626" />
    
    <!-- Coin -->
    <circle cx="16" cy="33" r="8" />
    <circle cx="16" cy="33" r="5" fill="#DC2626" />
    <text x="16" y="36" text-anchor="middle" font-size="8" fill="#FFFFFF">$</text>
    
    <!-- Slot Machine -->
    <rect x="26" y="30" width="14" height="12" rx="2" />
    <rect x="28" y="32" width="10" height="6" rx="1" fill="#DC2626" />
    <circle cx="33" cy="40" r="1" />
  </g>
</svg>