<svg xmlns="http://www.w3.org/2000/svg" width="730" height="730" viewBox="0 0 730 730">
  <!-- Background -->
  <rect width="730" height="730" rx="40" fill="#7C3AED" />
  
  <!-- Dice -->
  <rect x="140" y="180" width="160" height="160" rx="20" fill="#FFFFFF" />
  <circle cx="180" cy="220" r="20" fill="#000000" />
  <circle cx="260" cy="220" r="20" fill="#000000" />
  <circle cx="180" cy="300" r="20" fill="#000000" />
  <circle cx="260" cy="300" r="20" fill="#000000" />
  <circle cx="220" cy="260" r="20" fill="#000000" />
  
  <!-- Card -->
  <rect x="340" y="180" width="120" height="180" rx="10" fill="#FFFFFF" stroke="#000000" stroke-width="4" />
  <rect x="350" y="190" width="100" height="20" rx="5" fill="#FF0000" />
  <text x="400" y="236" font-family="Arial, sans-serif" font-size="40" text-anchor="middle" fill="#000000">A</text>
  <text x="400" y="300" font-family="Arial, sans-serif" font-size="24" text-anchor="middle" fill="#000000">♥</text>
  
  <!-- Coins -->
  <circle cx="180" cy="420" r="60" fill="#FFD700" stroke="#B8860B" stroke-width="4" />
  <circle cx="180" cy="420" r="50" fill="#FFC000" />
  <text x="180" y="435" font-family="Arial, sans-serif" font-size="32" text-anchor="middle" fill="#B8860B">$</text>
  
  <circle cx="260" cy="450" r="60" fill="#FFD700" stroke="#B8860B" stroke-width="4" />
  <circle cx="260" cy="450" r="50" fill="#FFC000" />
  <text x="260" y="465" font-family="Arial, sans-serif" font-size="32" text-anchor="middle" fill="#B8860B">$</text>
  
  <circle cx="340" cy="420" r="60" fill="#FFD700" stroke="#B8860B" stroke-width="4" />
  <circle cx="340" cy="420" r="50" fill="#FFC000" />
  <text x="340" y="435" font-family="Arial, sans-serif" font-size="32" text-anchor="middle" fill="#B8860B">$</text>
  
  <!-- Slot Machine -->
  <rect x="480" y="180" width="120" height="200" rx="10" fill="#8B0000" />
  <rect x="490" y="200" width="100" height="80" rx="5" fill="#FFFFFF" />
  <text x="540" y="250" font-family="Arial, sans-serif" font-size="36" text-anchor="middle" fill="#FF0000">7</text>
  <circle cx="510" cy="310" r="12" fill="#FFD700" />
  <circle cx="540" cy="340" r="12" fill="#FFD700" />
  <circle cx="570" cy="310" r="12" fill="#FFD700" />
  <rect x="500" y="360" width="80" height="10" rx="5" fill="#FFD700" />
  
  <!-- Text -->
  <text x="365" y="600" font-family="Arial, sans-serif" font-size="48" text-anchor="middle" fill="#FFFFFF">GAMBLING COMMANDS</text>
</svg>