<svg xmlns="http://www.w3.org/2000/svg" width="160" height="60" viewBox="0 0 160 60">
  <rect width="160" height="60" rx="10" fill="#4B5563" />
  <g fill="#FFFFFF">
    <!-- Command List -->
    <rect x="20" y="15" width="40" height="5" rx="2" />
    <rect x="20" y="25" width="30" height="5" rx="2" />
    <rect x="20" y="35" width="35" height="5" rx="2" />
    
    <!-- Question Mark -->
    <path d="M85,15 C93,15 100,22 100,30 C100,36 95.5,41 90,42.5 C88.5,43 87.5,44 87.5,45.5 L87.5,47.5 L82.5,47.5 L82.5,45.5 C82.5,42 85.5,40 87.5,39 C91,38 95,34.5 95,30 C95,24.5 90.5,20 85,20 C79.5,20 75,24.5 75,30 L70,30 C70,21.5 76.5,15 85,15 Z" />
    <circle cx="85" cy="52.5" r="2.5" />
    
    <!-- Command Palette -->
    <rect x="110" y="15" width="30" height="30" rx="3" />
    <rect x="115" y="20" width="20" height="4" rx="1" fill="#4B5563" />
    <rect x="115" y="28" width="15" height="4" rx="1" fill="#4B5563" />
    <rect x="115" y="36" width="18" height="4" rx="1" fill="#4B5563" />
  </g>
</svg>