<svg xmlns="http://www.w3.org/2000/svg" width="730" height="730" viewBox="0 0 730 730">
  <!-- Background -->
  <rect width="730" height="730" rx="40" fill="#7C3AED" />
  
  <!-- Growth Chart -->
  <rect x="180" y="220" width="370" height="250" fill="#FFFFFF" stroke="#000000" stroke-width="4" />
  
  <!-- Chart Grid -->
  <line x1="180" y1="270" x2="550" y2="270" stroke="#E5E7EB" stroke-width="2" />
  <line x1="180" y1="320" x2="550" y2="320" stroke="#E5E7EB" stroke-width="2" />
  <line x1="180" y1="370" x2="550" y2="370" stroke="#E5E7EB" stroke-width="2" />
  <line x1="180" y1="420" x2="550" y2="420" stroke="#E5E7EB" stroke-width="2" />
  
  <line x1="243" y1="220" x2="243" y2="470" stroke="#E5E7EB" stroke-width="2" />
  <line x1="306" y1="220" x2="306" y2="470" stroke="#E5E7EB" stroke-width="2" />
  <line x1="369" y1="220" x2="369" y2="470" stroke="#E5E7EB" stroke-width="2" />
  <line x1="432" y1="220" x2="432" y2="470" stroke="#E5E7EB" stroke-width="2" />
  <line x1="495" y1="220" x2="495" y2="470" stroke="#E5E7EB" stroke-width="2" />
  
  <!-- Chart Axes -->
  <line x1="180" y1="470" x2="550" y2="470" stroke="#000000" stroke-width="3" />
  <line x1="180" y1="220" x2="180" y2="470" stroke="#000000" stroke-width="3" />
  
  <!-- Growth Curve -->
  <path d="M180,450 C230,440 280,400 330,350 C380,300 430,260 550,220" stroke="#10B981" stroke-width="4" fill="none" />
  
  <!-- Chart Bars -->
  <rect x="200" y="420" width="30" height="50" fill="#A5B4FC" />
  <rect x="263" y="400" width="30" height="70" fill="#A5B4FC" />
  <rect x="326" y="370" width="30" height="100" fill="#A5B4FC" />
  <rect x="389" y="330" width="30" height="140" fill="#A5B4FC" />
  <rect x="452" y="280" width="30" height="190" fill="#A5B4FC" />
  <rect x="515" y="250" width="30" height="220" fill="#A5B4FC" />
  
  <!-- Percentage Symbol -->
  <text x="365" y="180" font-family="Arial, sans-serif" font-size="60" font-weight="bold" text-anchor="middle" fill="#FFFFFF">%</text>
  
  <!-- Coins -->
  <circle cx="200" cy="520" r="25" fill="#FCD34D" stroke="#B45309" stroke-width="3" />
  <circle cx="200" cy="520" r="15" fill="#FBBF24" />
  <text x="200" y="526" font-family="Arial, sans-serif" font-size="16" font-weight="bold" text-anchor="middle" fill="#B45309">$</text>
  
  <circle cx="250" cy="520" r="25" fill="#FCD34D" stroke="#B45309" stroke-width="3" />
  <circle cx="250" cy="520" r="15" fill="#FBBF24" />
  <text x="250" y="526" font-family="Arial, sans-serif" font-size="16" font-weight="bold" text-anchor="middle" fill="#B45309">$</text>
  
  <circle cx="300" cy="520" r="25" fill="#FCD34D" stroke="#B45309" stroke-width="3" />
  <circle cx="300" cy="520" r="15" fill="#FBBF24" />
  <text x="300" y="526" font-family="Arial, sans-serif" font-size="16" font-weight="bold" text-anchor="middle" fill="#B45309">$</text>
  
  <!-- Text -->
  <text x="365" y="600" font-family="Arial, sans-serif" font-size="48" text-anchor="middle" fill="#FFFFFF">INTEREST</text>
</svg>