<svg xmlns="http://www.w3.org/2000/svg" width="160" height="60" viewBox="0 0 160 60">
  <rect width="160" height="60" rx="10" fill="#D97706" />
  <g fill="#FFFFFF">
    <!-- Trophy -->
    <path d="M40,15 L50,15 L50,20 Q60,20 60,30 Q60,37 53,37 Q50,42 45,42 Q40,42 37,37 Q30,37 30,30 Q30,20 40,20 Z" />
    <rect x="42" y="42" width="6" height="5" />
    <rect x="39" y="47" width="12" height="3" />
    
    <!-- Medal 1st Place -->
    <circle cx="85" cy="25" r="10" fill="#FEF08A" stroke="#FFFFFF" stroke-width="2" />
    <text x="85" y="29" font-family="Arial" font-size="12" font-weight="bold" text-anchor="middle" fill="#D97706">1</text>
    
    <!-- Medal 2nd Place -->
    <circle cx="110" cy="30" r="8" fill="#E5E7EB" stroke="#FFFFFF" stroke-width="2" />
    <text x="110" y="34" font-family="Arial" font-size="10" font-weight="bold" text-anchor="middle" fill="#D97706">2</text>
    
    <!-- Medal 3rd Place -->
    <circle cx="130" cy="35" r="7" fill="#D97706" stroke="#FFFFFF" stroke-width="2" />
    <text x="130" y="38" font-family="Arial" font-size="8" font-weight="bold" text-anchor="middle" fill="#FFFFFF">3</text>
    
    <!-- Podium -->
    <rect x="75" y="45" width="20" height="15" />
    <rect x="100" y="50" width="20" height="10" />
    <rect x="125" y="53" width="20" height="7" />
  </g>
</svg>