<svg xmlns="http://www.w3.org/2000/svg" width="48" height="48" viewBox="0 0 48 48">
  <rect width="48" height="48" rx="8" fill="#F59E0B" />
  <g fill="#FFFFFF">
    <!-- Trophy -->
    <path d="M24,8 L18,8 L18,12 L10,12 L10,20 C10,24 14,28 18,28 L18,36 L30,36 L30,28 C34,28 38,24 38,20 L38,12 L30,12 L30,8 L24,8 Z" />
    <rect x="18" y="36" width="12" height="4" />
    <rect x="21" y="28" width="6" height="8" fill="#F59E0B" />
    <circle cx="24" cy="20" r="4" fill="#F59E0B" />
    
    <!-- Stars -->
    <circle cx="14" cy="16" r="1" />
    <circle cx="34" cy="16" r="1" />
    <circle cx="10" cy="22" r="1" />
    <circle cx="38" cy="22" r="1" />
  </g>
</svg>