<svg xmlns="http://www.w3.org/2000/svg" width="730" height="730" viewBox="0 0 730 730">
  <!-- Background -->
  <rect width="730" height="730" rx="40" fill="#BE185D" />
  
  <!-- Crown -->
  <path d="M265,250 L365,220 L465,250 L435,320 L295,320 Z" fill="#FCD34D" stroke="#B45309" stroke-width="4" />
  <circle cx="265" cy="250" r="15" fill="#FB923C" />
  <circle cx="365" cy="220" r="15" fill="#FB923C" />
  <circle cx="465" cy="250" r="15" fill="#FB923C" />
  
  <!-- Crown Jewels -->
  <circle cx="295" cy="270" r="12" fill="#2563EB" stroke="#FFFFFF" stroke-width="2" />
  <circle cx="365" cy="260" r="12" fill="#DC2626" stroke="#FFFFFF" stroke-width="2" />
  <circle cx="435" cy="270" r="12" fill="#059669" stroke="#FFFFFF" stroke-width="2" />
  
  <!-- Prestige Badge/Shield -->
  <path d="M365,340 L440,370 L420,470 L365,520 L310,470 L290,370 Z" fill="#F472B6" stroke="#831843" stroke-width="4" />
  <text x="365" y="440" font-family="Arial, sans-serif" font-size="70" font-weight="bold" text-anchor="middle" fill="#FFFFFF">P</text>
  
  <!-- Stars Around Badge -->
  <polygon points="240,400 250,420 275,425 255,440 260,465 240,450 220,465 225,440 205,425 230,420" fill="#FCD34D" />
  <polygon points="490,400 500,420 525,425 505,440 510,465 490,450 470,465 475,440 455,425 480,420" fill="#FCD34D" />
  <polygon points="365,180 375,195 390,200 375,210 380,225 365,215 350,225 355,210 340,200 355,195" fill="#FCD34D" />
  
  <!-- Light Rays (from behind crown) -->
  <line x1="365" y1="150" x2="365" y2="180" stroke="#FDE68A" stroke-width="3" />
  <line x1="315" y1="170" x2="335" y2="190" stroke="#FDE68A" stroke-width="3" />
  <line x1="415" y1="170" x2="395" y2="190" stroke="#FDE68A" stroke-width="3" />
  <line x1="290" y1="210" x2="320" y2="220" stroke="#FDE68A" stroke-width="3" />
  <line x1="440" y1="210" x2="410" y2="220" stroke="#FDE68A" stroke-width="3" />
  
  <!-- Text -->
  <text x="365" y="600" font-family="Arial, sans-serif" font-size="48" text-anchor="middle" fill="#FFFFFF">PRESTIGE</text>
</svg>