<svg xmlns="http://www.w3.org/2000/svg" width="48" height="48" viewBox="0 0 48 48">
  <rect width="48" height="48" rx="8" fill="#9333EA" />
  <g fill="#FFFFFF">
    <!-- Crossed Swords -->
    <path d="M14,34 L24,24 L34,34 L34,34 L14,34 Z" />
    <path d="M14,14 L24,24 L34,14 L34,14 L14,14 Z" />
    <rect x="22" y="12" width="4" height="24" />
    
    <!-- Shield Left -->
    <path d="M12,19 C12,19 12,28 17,32 C17,32 17,26 19,24 C19,24 17,26 17,19 L12,19 Z" />
    
    <!-- Shield Right -->
    <path d="M36,19 C36,19 36,28 31,32 C31,32 31,26 29,24 C29,24 31,26 31,19 L36,19 Z" />
    
    <!-- Stars -->
    <circle cx="16" cy="22" r="1" />
    <circle cx="32" cy="22" r="1" />
    <circle cx="19" cy="18" r="1" />
    <circle cx="29" cy="18" r="1" />
  </g>
</svg>