<svg xmlns="http://www.w3.org/2000/svg" width="730" height="730" viewBox="0 0 730 730">
  <!-- Background -->
  <rect width="730" height="730" rx="40" fill="#DC2626" />
  
  <!-- Swords crossed -->
  <g transform="translate(365, 365) rotate(45) translate(-365, -365)">
    <!-- Sword 1 -->
    <rect x="170" y="220" width="390" height="40" rx="5" fill="#C0C0C0" />
    <rect x="170" y="220" width="80" height="40" rx="5" fill="#8B4513" />
    <rect x="140" y="230" width="30" height="20" rx="5" fill="#C0C0C0" />
    
    <!-- Sword 2 -->
    <rect x="170" y="470" width="390" height="40" rx="5" fill="#C0C0C0" />
    <rect x="170" y="470" width="80" height="40" rx="5" fill="#8B4513" />
    <rect x="140" y="480" width="30" height="20" rx="5" fill="#C0C0C0" />
  </g>
  
  <!-- Versus Text -->
  <text x="365" y="365" font-family="Arial, sans-serif" font-size="80" font-weight="bold" text-anchor="middle" fill="#FFFFFF">VS</text>
  
  <!-- Shield 1 -->
  <path d="M200,180 C200,180 250,160 300,180 C300,180 320,280 300,320 C280,350 250,350 250,350 C250,350 220,350 200,320 C180,280 200,180 200,180 Z" fill="#0000CD" stroke="#FFFFFF" stroke-width="5" />
  
  <!-- Shield 2 -->
  <path d="M430,180 C430,180 480,160 530,180 C530,180 550,280 530,320 C510,350 480,350 480,350 C480,350 450,350 430,320 C410,280 430,180 430,180 Z" fill="#8B0000" stroke="#FFFFFF" stroke-width="5" />
  
  <!-- Text -->
  <text x="365" y="600" font-family="Arial, sans-serif" font-size="48" text-anchor="middle" fill="#FFFFFF">PVP COMMANDS</text>
</svg>