<svg xmlns="http://www.w3.org/2000/svg" width="160" height="60" viewBox="0 0 160 60">
  <rect width="160" height="60" rx="10" fill="#7C3AED" />
  <g fill="#FFFFFF">
    <!-- Left Sword -->
    <path d="M30,45 L50,25 L55,30 L35,50 L30,45 Z" />
    <rect x="50" y="15" width="5" height="10" />
    <rect x="47.5" y="10" width="10" height="5" />
    
    <!-- VS Text -->
    <text x="80" y="35" font-family="Arial" font-weight="bold" font-size="18" text-anchor="middle" fill="#FFFFFF">VS</text>
    
    <!-- Right Sword -->
    <path d="M130,45 L110,25 L105,30 L125,50 L130,45 Z" />
    <rect x="105" y="15" width="5" height="10" />
    <rect x="102.5" y="10" width="10" height="5" />
    
    <!-- Shield Outlines -->
    <path d="M30,25 Q30,40 45,50 Q60,40 60,25 L30,25 Z" fill="none" stroke="#FFFFFF" stroke-width="2" />
    <path d="M100,25 Q100,40 115,50 Q130,40 130,25 L100,25 Z" fill="none" stroke="#FFFFFF" stroke-width="2" />
  </g>
</svg>