<svg xmlns="http://www.w3.org/2000/svg" width="160" height="60" viewBox="0 0 160 60">
  <rect width="160" height="60" rx="10" fill="#6B7280" />
  <g fill="#FFFFFF">
    <!-- Registration Form -->
    <rect x="20" y="15" width="40" height="35" rx="2" />
    <rect x="25" y="20" width="30" height="5" rx="1" fill="#6B7280" />
    <rect x="25" y="30" width="30" height="5" rx="1" fill="#6B7280" />
    <rect x="25" y="40" width="20" height="5" rx="1" fill="#6B7280" />
    
    <!-- User Icon -->
    <circle cx="85" cy="25" r="10" fill="#F3F4F6" />
    <circle cx="85" cy="20" r="4" />
    <path d="M75,40 Q75,30 85,30 Q95,30 95,40 Z" />
    
    <!-- Username Tag -->
    <rect x="70" y="40" width="30" height="8" rx="4" />
    <text x="85" y="46" font-family="Arial" font-size="6" text-anchor="middle" fill="#6B7280">USERNAME</text>
    
    <!-- Checkmark -->
    <circle cx="120" cy="30" r="15" fill="#10B981" />
    <path d="M110,30 L118,38 L130,26" fill="none" stroke="#FFFFFF" stroke-width="3" />
    
    <!-- Key Icon -->
    <circle cx="145" cy="30" r="10" stroke="#FFFFFF" stroke-width="2" fill="none" />
    <rect x="142" y="25" width="6" height="10" rx="2" />
    <rect x="144" y="30" width="2" height="5" />
  </g>
</svg>