<svg xmlns="http://www.w3.org/2000/svg" width="730" height="730" viewBox="0 0 730 730">
  <!-- Background -->
  <rect width="730" height="730" rx="40" fill="#2563EB" />
  
  <!-- XP Text -->
  <text x="365" y="300" font-family="Arial, sans-serif" font-size="180" font-weight="bold" text-anchor="middle" fill="#FFFFFF">XP</text>
  
  <!-- Level Progress Bar -->
  <rect x="180" y="350" width="370" height="60" rx="30" fill="#1E3A8A" />
  <rect x="180" y="350" width="240" height="60" rx="30" fill="#60A5FA" />
  
  <!-- Stars -->
  <polygon points="180,200 195,230 230,230 205,250 215,280 180,260 145,280 155,250 130,230 165,230" fill="#FFFF00" />
  <polygon points="550,200 565,230 600,230 575,250 585,280 550,260 515,280 525,250 500,230 535,230" fill="#FFFF00" />
  
  <!-- Level Numbers -->
  <circle cx="180" cy="450" r="40" fill="#1E3A8A" stroke="#FFFFFF" stroke-width="3" />
  <text x="180" y="460" font-family="Arial, sans-serif" font-size="30" font-weight="bold" text-anchor="middle" fill="#FFFFFF">5</text>
  
  <circle cx="280" cy="450" r="30" fill="#60A5FA" stroke="#FFFFFF" stroke-width="2" />
  <text x="280" y="458" font-family="Arial, sans-serif" font-size="24" font-weight="bold" text-anchor="middle" fill="#FFFFFF">6</text>
  
  <circle cx="380" cy="450" r="30" fill="#60A5FA" stroke="#FFFFFF" stroke-width="2" />
  <text x="380" y="458" font-family="Arial, sans-serif" font-size="24" font-weight="bold" text-anchor="middle" fill="#FFFFFF">7</text>
  
  <circle cx="480" cy="450" r="30" fill="#60A5FA" stroke="#FFFFFF" stroke-width="2" />
  <text x="480" y="458" font-family="Arial, sans-serif" font-size="24" font-weight="bold" text-anchor="middle" fill="#FFFFFF">8</text>
  
  <!-- Sparkles -->
  <circle cx="230" cy="200" r="5" fill="#FFFFFF" />
  <circle cx="500" cy="200" r="5" fill="#FFFFFF" />
  <circle cx="250" cy="380" r="5" fill="#FFFFFF" />
  <circle cx="450" cy="380" r="5" fill="#FFFFFF" />
  <circle cx="330" cy="450" r="5" fill="#FFFFFF" />
  <circle cx="430" cy="450" r="5" fill="#FFFFFF" />
  
  <!-- Arrows -->
  <polygon points="235,450 265,450 250,420" fill="#FFFFFF" />
  <polygon points="335,450 365,450 350,420" fill="#FFFFFF" />
  <polygon points="435,450 465,450 450,420" fill="#FFFFFF" />
  
  <!-- Text -->
  <text x="365" y="600" font-family="Arial, sans-serif" font-size="48" text-anchor="middle" fill="#FFFFFF">XP COMMANDS</text>
</svg>