<svg xmlns="http://www.w3.org/2000/svg" width="160" height="60" viewBox="0 0 160 60">
  <rect width="160" height="60" rx="10" fill="#1D4ED8" />
  <g fill="#FFFFFF">
    <!-- Bank Building -->
    <rect x="30" y="25" width="50" height="25" />
    <path d="M25,25 L85,25 L55,10 Z" />
    <rect x="25" y="50" width="60" height="5" />
    
    <!-- Columns -->
    <rect x="35" y="25" width="5" height="25" />
    <rect x="45" y="25" width="5" height="25" />
    <rect x="55" y="25" width="5" height="25" />
    <rect x="65" y="25" width="5" height="25" />
    <rect x="75" y="25" width="5" height="25" />
    
    <!-- Safe -->
    <rect x="95" y="20" width="25" height="30" rx="2" fill="#DBEAFE" stroke="#FFFFFF" stroke-width="2" />
    <circle cx="108" cy="35" r="7" fill="#1D4ED8" stroke="#FFFFFF" stroke-width="2" />
    <circle cx="108" cy="35" r="2" fill="#FFFFFF" />
    <rect x="106" y="28" width="4" height="4" fill="#FFFFFF" />
    
    <!-- Coins -->
    <circle cx="130" cy="25" r="8" fill="#FCD34D" stroke="#FFFFFF" stroke-width="1" />
    <text x="130" y="28" font-family="Arial" font-size="8" font-weight="bold" text-anchor="middle" fill="#1D4ED8">$</text>
    <circle cx="140" cy="35" r="8" fill="#FCD34D" stroke="#FFFFFF" stroke-width="1" />
    <text x="140" y="38" font-family="Arial" font-size="8" font-weight="bold" text-anchor="middle" fill="#1D4ED8">$</text>
    <circle cx="132" cy="45" r="8" fill="#FCD34D" stroke="#FFFFFF" stroke-width="1" />
    <text x="132" y="48" font-family="Arial" font-size="8" font-weight="bold" text-anchor="middle" fill="#1D4ED8">$</text>
  </g>
</svg>