<svg xmlns="http://www.w3.org/2000/svg" width="160" height="60" viewBox="0 0 160 60">
  <rect width="160" height="60" rx="10" fill="#0EA5E9" />
  <g fill="#FFFFFF">
    <!-- Calendar -->
    <rect x="20" y="15" width="45" height="35" rx="3" />
    <rect x="25" y="25" width="5" height="5" fill="#0EA5E9" />
    <rect x="35" y="25" width="5" height="5" fill="#0EA5E9" />
    <rect x="45" y="25" width="5" height="5" fill="#0EA5E9" />
    <rect x="55" y="25" width="5" height="5" fill="#0EA5E9" />
    <rect x="25" y="35" width="5" height="5" fill="#0EA5E9" />
    <rect x="35" y="35" width="5" height="5" fill="#0EA5E9" />
    <rect x="45" y="35" width="5" height="5" fill="#0EA5E9" />
    <rect x="55" y="35" width="5" height="5" fill="#22D3EE" />
    <rect x="20" y="10" width="45" height="10" rx="3" fill="#22D3EE" />
    <line x1="30" y1="10" x2="30" y2="20" stroke="#0EA5E9" stroke-width="2" />
    <line x1="40" y1="10" x2="40" y2="20" stroke="#0EA5E9" stroke-width="2" />
    <line x1="50" y1="10" x2="50" y2="20" stroke="#0EA5E9" stroke-width="2" />
    
    <!-- Clock -->
    <circle cx="100" cy="30" r="15" stroke="#FFFFFF" stroke-width="2" fill="none" />
    <circle cx="100" cy="30" r="2" />
    <line x1="100" y1="30" x2="100" y2="20" stroke="#FFFFFF" stroke-width="2" />
    <line x1="100" y1="30" x2="108" y2="30" stroke="#FFFFFF" stroke-width="2" />
    
    <!-- Streak Flame -->
    <path d="M130,45 Q125,30 130,25 Q135,30 138,25 Q140,35 145,30 Q148,40 138,45 Z" fill="#F97316" />
    <path d="M132,43 Q130,32 134,28 Q137,32 138,28 Q140,37 142,35 Q144,42 136,43 Z" fill="#FDBA74" />
  </g>
</svg>