<svg xmlns="http://www.w3.org/2000/svg" width="160" height="60" viewBox="0 0 160 60">
  <rect width="160" height="60" rx="10" fill="#15803D" />
  <g fill="#FFFFFF">
    <!-- Store/Market Building -->
    <rect x="20" y="20" width="50" height="30" />
    <path d="M15,20 L75,20 L45,10 Z" />
    <rect x="30" y="30" width="10" height="20" />
    <rect x="50" y="30" width="10" height="20" />
    
    <!-- Shopping Cart -->
    <circle cx="95" cy="45" r="5" />
    <circle cx="110" cy="45" r="5" />
    <path d="M85,20 L115,20 L110,40 L90,40 Z" fill="none" stroke="#FFFFFF" stroke-width="2" />
    <path d="M95,20 L95,30" stroke="#FFFFFF" stroke-width="2" />
    <path d="M105,20 L103,30" stroke="#FFFFFF" stroke-width="2" />
    
    <!-- Stock Chart -->
    <path d="M125,15 L125,45 L155,45" stroke="#FFFFFF" stroke-width="2" fill="none" />
    <path d="M125,40 L130,35 L135,38 L140,25 L145,30 L150,20" stroke="#4ADE80" stroke-width="2" fill="none" />
    <circle cx="130" cy="35" r="2" fill="#4ADE80" />
    <circle cx="135" cy="38" r="2" fill="#4ADE80" />
    <circle cx="140" cy="25" r="2" fill="#4ADE80" />
    <circle cx="145" cy="30" r="2" fill="#4ADE80" />
    <circle cx="150" cy="20" r="2" fill="#4ADE80" />
  </g>
</svg>